<?xml version="1.0" encoding="utf-8"?>
<!-- Generator: Adobe Illustrator 16.0.3, SVG Export Plug-In . SVG Version: 6.00 Build 0)  -->
<!DOCTYPE svg PUBLIC "-//W3C//DTD SVG 1.1//EN" "http://www.w3.org/Graphics/SVG/1.1/DTD/svg11.dtd">
<svg version="1.1" xmlns="http://www.w3.org/2000/svg" xmlns:xlink="http://www.w3.org/1999/xlink" x="0px" y="0px" width="63px"
	 height="63px" viewBox="0 0 63 63" style="enable-background:new 0 0 63 63;" xml:space="preserve">
<style type="text/css">
<![CDATA[
	.st0{fill:#FFD400;}
	.st1{fill:#FFFFFF;}
	.st2{display:inline;}
	.st3{display:none;}
]]>
</style>
<g id="logo">
	<g>
		<circle class="st0" cx="31.5" cy="31.5" r="29.6"/>
		<path class="st1" d="M31.5,1.9c16.3,0,29.6,13.2,29.6,29.6S47.8,61.1,31.5,61.1c-16.3,0-29.6-13.2-29.6-29.6S15.2,1.9,31.5,1.9
			 M31.5,0C14.1,0,0,14.1,0,31.5C0,48.9,14.1,63,31.5,63S63,48.9,63,31.5C63,14.1,48.9,0,31.5,0L31.5,0z"/>
	</g>
	<g>
		<g>
			<path d="M41.1,18.5l-9.9,20.2V18.5h-8.8L10,43.7h7.1l1.2-2.5h6.4v2.5h11.2l1.2-2.5h6.4v2.5H50V18.5H41.1z M21,35.2l3.7-8.2v8.2
				H21z M39.8,35.2l3.7-8.2v8.2H39.8z"/>
		</g>
	</g>
</g>
<g id="clearspace" class="st3">
	<g class="st2">
		<g>
		</g>
	</g>
	<g class="st2">
		<g>
		</g>
	</g>
	<g class="st2">
		<g>
		</g>
	</g>
	<g class="st2">
		<g>
		</g>
	</g>
</g>
</svg>
